<svg width="26" height="22" viewBox="0 0 26 22" fill="none" xmlns="http://www.w3.org/2000/svg">
<path d="M11.8038 17.993H14.0737V16.67C15.1547 16.5112 16.0843 16.1672 16.8625 15.638C17.6408 15.1088 18.0299 14.3238 18.0299 13.283C18.0299 12.5421 17.7705 11.863 17.2517 11.2456C16.7328 10.6282 15.6951 10.0901 14.1386 9.6315C12.8415 9.27869 11.9443 8.96999 11.4471 8.70539C10.9498 8.44078 10.7012 8.07916 10.7012 7.62051C10.7012 7.16186 10.9012 6.80024 11.3011 6.53563C11.7011 6.27103 12.2794 6.13872 13.036 6.13872C13.7278 6.13872 14.2683 6.27544 14.6574 6.54886C15.0466 6.82229 15.3276 7.16186 15.5006 7.56759L17.5759 6.87962C17.3381 6.26221 16.9004 5.72418 16.2626 5.26553C15.6249 4.80688 14.9169 4.5511 14.1386 4.49818V3.17516H11.8686V4.49818C10.7877 4.69222 9.94457 5.08031 9.33925 5.66244C8.73393 6.24457 8.43127 6.89726 8.43127 7.62051C8.43127 8.4496 8.72852 9.11993 9.32303 9.6315C9.91755 10.1431 10.8526 10.5841 12.1281 10.9545C13.49 11.3602 14.4358 11.7219 14.9655 12.0394C15.4952 12.3569 15.76 12.7715 15.76 13.283C15.76 13.8652 15.506 14.2929 14.9979 14.5664C14.4899 14.8398 13.8792 14.9765 13.1657 14.9765C12.4523 14.9765 11.82 14.7957 11.2687 14.4341C10.7174 14.0724 10.3121 13.53 10.0527 12.8067L7.91242 13.4947C8.21508 14.3415 8.68528 15.025 9.32303 15.5454C9.96078 16.0658 10.7877 16.423 11.8038 16.617V17.993ZM12.9712 21.1682C11.1768 21.1682 9.49058 20.8904 7.91242 20.3347C6.33426 19.7791 4.96148 19.0249 3.79407 18.0724C2.62666 17.1198 1.70247 15.9996 1.02148 14.7119C0.340493 13.4242 0 12.0482 0 10.5841C0 9.11993 0.340493 7.74399 1.02148 6.45625C1.70247 5.16851 2.62666 4.04835 3.79407 3.09578C4.96148 2.1432 6.33426 1.38908 7.91242 0.833412C9.49058 0.277743 11.1768 -9.15527e-05 12.9712 -9.15527e-05C14.7655 -9.15527e-05 16.4518 0.277743 18.0299 0.833412C19.6081 1.38908 20.9809 2.1432 22.1483 3.09578C23.3157 4.04835 24.2399 5.16851 24.9209 6.45625C25.6019 7.74399 25.9424 9.11993 25.9424 10.5841C25.9424 12.0482 25.6019 13.4242 24.9209 14.7119C24.2399 15.9996 23.3157 17.1198 22.1483 18.0724C20.9809 19.0249 19.6081 19.7791 18.0299 20.3347C16.4518 20.8904 14.7655 21.1682 12.9712 21.1682Z" fill="white"/>
</svg>
